<?xml version="1.0" standalone="no"?>
<!DOCTYPE svg PUBLIC "-//W3C//DTD SVG 20010904//EN"
 "http://www.w3.org/TR/2001/REC-SVG-20010904/DTD/svg10.dtd">
<svg version="1.0" xmlns="http://www.w3.org/2000/svg"
 width="1024.000000pt" height="1024.000000pt" viewBox="0 0 1024.000000 1024.000000"
 preserveAspectRatio="xMidYMid meet">

<g transform="translate(0.000000,1024.000000) scale(0.100000,-0.100000)"
fill="#000000" stroke="none">
<path d="M4120 7719 c-32 -13 -68 -47 -86 -81 -19 -36 -18 -112 2 -154 14 -30
128 -130 240 -210 l29 -21 -61 -69 c-188 -213 -317 -432 -404 -684 -19 -52
-35 -97 -36 -99 -2 -2 -48 33 -104 78 -122 100 -142 111 -205 111 -100 0 -165
-61 -165 -154 0 -58 21 -109 79 -195 23 -33 41 -64 41 -69 0 -5 -26 -13 -57
-17 -176 -22 -432 -141 -531 -248 -32 -34 -52 -94 -42 -128 6 -22 4 -32 -12
-46 -31 -27 -129 -150 -176 -218 -177 -261 -268 -543 -279 -868 -16 -431 110
-810 374 -1125 231 -278 516 -461 857 -552 163 -44 290 -60 468 -60 194 0 341
24 520 83 l128 43 30 -42 c50 -71 211 -227 300 -293 266 -197 536 -303 872
-340 634 -71 1240 218 1609 768 121 179 195 347 242 546 134 567 -22 1151
-424 1583 -52 57 -59 69 -59 105 0 54 -26 95 -90 146 -118 93 -297 170 -457
196 -24 4 -43 10 -43 13 0 4 16 30 36 57 58 81 94 160 94 206 0 90 -72 159
-165 159 -62 0 -103 -19 -188 -88 -40 -32 -110 -87 -157 -121 l-85 -62 -9 42
c-25 111 33 477 98 621 l25 57 64 -6 c75 -7 158 9 199 39 36 25 67 89 68 138
0 50 -38 121 -78 143 -25 15 -73 22 -215 33 -416 31 -818 116 -1179 250 -150
55 -471 212 -593 289 -49 31 -143 95 -208 141 -157 114 -199 130 -267 103z
m860 -827 c268 -107 556 -188 844 -238 83 -15 152 -27 153 -29 2 -1 -9 -35
-23 -76 -50 -144 -75 -292 -81 -471 -3 -93 -9 -168 -12 -168 -4 0 -64 47 -133
104 -70 57 -141 109 -159 115 -110 38 -216 -25 -226 -136 -6 -58 17 -110 92
-211 25 -35 45 -65 43 -66 -2 -2 -39 -8 -83 -14 -148 -22 -302 -87 -377 -160
-16 -14 -36 -47 -45 -72 -13 -33 -48 -78 -115 -149 -109 -115 -101 -115 -113
12 -4 37 -17 112 -29 168 -16 69 -19 102 -12 104 6 2 72 15 146 30 196 39 329
73 364 93 36 21 61 79 52 117 -29 114 -341 285 -567 311 -32 4 -59 10 -59 14
0 4 13 25 28 46 96 133 118 211 80 283 -35 68 -66 86 -146 86 l-67 0 -194
-143 c-106 -79 -195 -141 -198 -138 -13 13 78 233 150 360 55 99 165 248 251
343 l56 61 128 -63 c70 -35 184 -86 252 -113z m-1081 -914 c141 -70 175 -70
316 -5 111 51 100 53 148 -23 32 -50 79 -78 145 -85 97 -11 103 -18 25 -31
-99 -17 -142 -39 -160 -83 -16 -38 -19 -24 47 -259 17 -63 29 -116 26 -119 -3
-3 -31 17 -63 45 -283 246 -295 254 -363 233 -24 -7 -96 -60 -196 -145 -88
-74 -160 -131 -162 -126 -5 13 34 147 63 218 55 134 28 192 -100 223 -44 10
-90 19 -103 19 -13 0 -20 4 -17 10 3 6 19 10 35 10 56 0 131 22 161 47 16 14
41 48 55 74 13 27 27 49 30 49 4 0 54 -24 113 -52z m-615 -353 c72 -14 132
-27 134 -29 2 -3 -6 -42 -17 -88 -41 -167 -80 -509 -67 -582 9 -47 48 -92 93
-107 75 -24 94 -11 370 264 l253 251 72 -69 c40 -39 138 -134 218 -211 80 -78
158 -153 174 -166 28 -23 28 -25 13 -49 -26 -39 -85 -204 -112 -308 -44 -175
-58 -316 -52 -526 7 -257 42 -414 138 -629 22 -49 37 -92 32 -96 -16 -14 -199
-60 -303 -76 -254 -39 -577 13 -827 132 -466 222 -759 668 -780 1184 -14 343
75 621 289 908 78 104 207 234 227 227 9 -2 74 -16 145 -30z m2604 -74 c87
-51 163 -75 214 -68 22 3 83 26 135 51 52 25 96 46 97 46 1 0 20 -27 41 -60
44 -68 69 -82 173 -101 40 -7 69 -15 65 -19 -4 -4 -45 -12 -91 -18 -96 -13
-136 -31 -157 -72 -22 -42 -19 -72 16 -158 44 -108 80 -215 74 -220 -5 -5 -55
33 -170 128 -152 127 -172 140 -220 140 -42 0 -53 -7 -209 -135 -91 -74 -167
-135 -170 -135 -6 0 17 77 60 204 42 122 43 156 7 196 -24 26 -42 34 -121 49
-94 19 -126 31 -81 31 45 0 160 37 184 60 13 13 34 45 47 71 13 27 27 49 31
49 5 0 39 -18 75 -39z m-548 -396 c80 -15 114 -26 112 -35 -2 -7 -14 -56 -27
-110 -33 -130 -54 -269 -62 -415 -5 -102 -3 -125 11 -153 32 -61 117 -90 173
-59 12 7 134 123 271 259 l248 247 245 -245 c134 -135 256 -252 271 -260 66
-35 151 -6 183 62 17 36 18 49 7 164 -13 147 -44 333 -74 443 -11 43 -19 79
-17 81 2 1 67 13 144 25 77 12 150 25 163 28 20 5 39 -11 118 -92 299 -307
455 -738 415 -1145 -35 -346 -162 -626 -395 -868 -175 -182 -362 -301 -588
-376 -180 -60 -251 -71 -463 -70 -156 0 -208 4 -293 22 -288 62 -522 190 -733
401 -226 227 -362 489 -405 781 -21 148 -15 381 16 522 54 257 172 489 341
672 105 113 164 158 197 149 15 -3 79 -16 142 -28z"/>
<path d="M2915 4997 c-54 -54 -86 -203 -86 -402 0 -340 122 -638 355 -870 167
-167 381 -281 476 -255 82 22 125 92 102 168 -15 50 -31 63 -133 113 -209 102
-368 269 -460 483 -53 123 -64 188 -63 361 0 137 3 169 22 225 26 78 27 101 7
141 -24 45 -71 69 -133 69 -48 0 -58 -4 -87 -33z"/>
<path d="M4913 4240 c-57 -35 -67 -67 -59 -210 9 -192 42 -319 126 -497 90
-190 219 -347 386 -470 195 -143 501 -246 593 -199 44 23 71 71 71 127 0 80
-32 104 -195 148 -331 90 -595 360 -681 697 -15 59 -28 148 -32 220 -7 95 -12
126 -28 147 -40 56 -123 73 -181 37z"/>
</g>
</svg>
